PathFileType	4	(X/Y/Z)	joints.trc
DataRate	CameraRate	NumFrames	NumMarkers	Units	OrigDataRate	OrigDataStartFrame	OrigNumFrames
30.0	30.0	14	24	m	30.0	101	120
Frame#	Time	pelvis			femur_r			tibia_r			talus_r			calcn_r			toes_r			femur_l			tibia_l			talus_l			calcn_l			toes_l			lumbar_body			thorax			head			scapula_r			humerus_r			ulna_r			radius_r			hand_r			scapula_l			humerus_l			ulna_l			radius_l			hand_l		
		X1	Y1	Z1	X2	Y2	Z2	X3	Y3	Z3	X4	Y4	Z4	X5	Y5	Z5	X6	Y6	Z6	X7	Y7	Z7	X8	Y8	Z8	X9	Y9	Z9	X10	Y10	Z10	X11	Y11	Z11	X12	Y12	Z12	X13	Y13	Z13	X14	Y14	Z14	X15	Y15	Z15	X16	Y16	Z16	X17	Y17	Z17	X18	Y18	Z18	X19	Y19	Z19	X20	Y20	Z20	X21	Y21	Z21	X22	Y22	Z22	X23	Y23	Z23	X24	Y24	Z24
101	3.333333	0.008013	1.197273	-0.183876	0.027643	1.325151	-0.080733	-0.143955	0.839646	-0.001011	-0.178004	0.415663	-0.036292	-0.125160	0.317054	-0.124617	-0.219486	0.319840	0.048108	0.108002	1.301412	-0.035677	0.237660	0.831244	-0.032139	0.281122	0.454664	-0.074663	0.250574	0.288566	-0.081304	0.310396	0.347493	-0.016593	0.017268	1.464179	-0.019705	0.065542	1.852200	0.040342	0.021692	2.046062	0.024259	-0.172485	2.170463	0.024350	-0.140093	1.800897	0.036984	-0.319951	1.556199	-0.092542	-0.297687	1.626014	-0.124368	-0.652565	1.461394	-0.027717	0.260951	2.317184	-0.018938	0.227946	1.768829	-0.007463	0.346912	1.553706	-0.106581	0.359104	1.590877	-0.103920	0.680686	1.431285	-0.063691
102	3.366667	0.008170	1.161586	-0.181754	0.024483	1.283431	-0.080285	-0.146226	0.796615	-0.003407	-0.178966	0.365278	-0.039929	-0.128818	0.268506	-0.127232	-0.218871	0.272745	0.052117	0.108348	1.260347	-0.035116	0.246726	0.793010	-0.024232	0.291142	0.414050	-0.069700	0.261670	0.249368	-0.077981	0.319309	0.304008	-0.004065	0.016479	1.423628	-0.021543	0.060531	1.812316	0.031867	0.016848	2.002681	0.014180	-0.175019	2.122841	0.016069	-0.145190	1.759405	0.027272	-0.319327	1.514297	-0.098259	-0.297933	1.581669	-0.133015	-0.651066	1.426961	-0.018405	0.253853	2.264837	-0.023590	0.223069	1.724515	-0.012835	0.343190	1.511066	-0.101413	0.355423	1.543688	-0.101040	0.673461	1.385935	-0.042081
103	3.400000	0.008391	1.109008	-0.174227	0.020657	1.222614	-0.077561	-0.149212	0.738349	-0.000902	-0.181172	0.301298	-0.041652	-0.133338	0.207919	-0.129944	-0.220732	0.211385	0.053628	0.108140	1.200464	-0.032658	0.254241	0.735631	-0.013168	0.299179	0.354197	-0.059955	0.271464	0.192270	-0.070493	0.325008	0.242091	0.013463	0.016257	1.365851	-0.023408	0.055271	1.753493	0.023273	0.011493	1.940545	0.004034	-0.176898	2.052742	0.007606	-0.149753	1.698945	0.017352	-0.318306	1.453875	-0.106001	-0.298163	1.517677	-0.144197	-0.647350	1.376744	-0.008658	0.246118	2.189221	-0.027825	0.217850	1.662248	-0.017881	0.338648	1.452074	-0.099081	0.350921	1.479437	-0.100213	0.663552	1.325556	-0.021062
104	3.433333	0.008994	1.025174	-0.159572	0.014593	1.125553	-0.071972	-0.151237	0.646128	0.006860	-0.181693	0.209069	-0.049148	-0.139450	0.122586	-0.140421	-0.221256	0.120581	0.043006	0.108534	1.104917	-0.028016	0.261973	0.644095	0.006585	0.306640	0.264914	-0.054489	0.280791	0.106252	-0.067774	0.326935	0.151523	0.020440	0.017118	1.274293	-0.027138	0.048739	1.658603	0.014305	0.004483	1.841458	-0.005390	-0.178232	1.938581	-0.001443	-0.154758	1.601012	0.006081	-0.312741	1.355687	-0.116879	-0.294578	1.413884	-0.158511	-0.632712	1.288381	-0.001689	0.236448	2.067038	-0.031367	0.211727	1.562811	-0.022889	0.332363	1.358835	-0.099787	0.344539	1.379028	-0.101374	0.646220	1.232470	-0.003226
105	3.466667	0.010199	0.912594	-0.142181	0.005367	0.994253	-0.066631	-0.149683	0.531580	0.010951	-0.179694	0.108571	-0.083937	-0.149141	0.035077	-0.184056	-0.221949	0.031396	0.005270	0.110600	0.975436	-0.023156	0.266901	0.528627	0.039473	0.311146	0.157744	-0.084703	0.286358	0.008412	-0.099528	0.331477	0.043287	-0.003246	0.019120	1.150811	-0.035085	0.042917	1.529051	0.005501	0.000564	1.707185	-0.013382	-0.177738	1.782165	-0.010968	-0.157918	1.466529	-0.006381	-0.303310	1.218242	-0.125474	-0.288047	1.268754	-0.168449	-0.603794	1.151978	-0.000481	0.226450	1.902098	-0.035920	0.205838	1.428435	-0.028855	0.327430	1.233330	-0.103106	0.339155	1.243836	-0.104191	0.622807	1.099594	0.002500
106	3.500000	0.012397	0.789045	-0.135245	-0.006580	0.847412	-0.065622	-0.135983	0.410331	0.030999	-0.164306	0.051055	-0.119743	-0.147331	-0.007203	-0.229267	-0.209202	0.011334	0.004193	0.112802	0.830115	-0.020361	0.255133	0.403357	0.086043	0.294196	0.070007	-0.136761	0.273806	-0.015600	-0.149590	0.325446	-0.029863	-0.009663	0.023993	1.010265	-0.054221	0.037316	1.378312	0.001896	-0.002593	1.553635	-0.015868	-0.177636	1.596631	-0.018323	-0.162310	1.308108	-0.015756	-0.284670	1.058312	-0.123458	-0.272402	1.100393	-0.165407	-0.543172	0.985475	0.003927	0.217981	1.704115	-0.034104	0.200946	1.266840	-0.028525	0.319628	1.083474	-0.098779	0.330696	1.082561	-0.100091	0.589587	0.939658	0.012077
107	3.533333	0.014185	0.737826	-0.151292	-0.013288	0.782731	-0.076247	-0.131549	0.368444	0.062297	-0.158513	0.040658	-0.111408	-0.143323	-0.011667	-0.225325	-0.205018	0.010256	0.006453	0.111699	0.766052	-0.029140	0.237852	0.362424	0.128761	0.273883	0.054182	-0.141253	0.254394	-0.016397	-0.153462	0.311963	-0.038793	-0.009430	0.027322	0.945921	-0.079428	0.036178	1.310063	0.001782	-0.000610	1.484938	-0.013143	-0.177639	1.508912	-0.017496	-0.164220	1.230316	-0.018373	-0.252909	0.971602	-0.127181	-0.242416	1.010571	-0.161840	-0.490819	0.852862	-0.033335	0.216463	1.611113	-0.036715	0.200699	1.182310	-0.032192	0.295546	1.002448	-0.099201	0.305761	0.990495	-0.100225	0.536741	0.824832	-0.017682
108	3.566667	0.014469	0.732235	-0.160856	-0.014624	0.774663	-0.081535	-0.130877	0.363294	0.065430	-0.157716	0.039274	-0.110298	-0.142890	-0.012313	-0.224318	-0.204024	0.010123	0.006674	0.111088	0.757843	-0.034936	0.230375	0.356442	0.130641	0.265665	0.051296	-0.138684	0.246310	-0.016647	-0.150847	0.306490	-0.039756	-0.006902	0.027075	0.936890	-0.087646	0.036114	1.300892	0.001478	0.000895	1.474979	-0.013116	-0.177976	1.493659	-0.014801	-0.165039	1.214786	-0.017561	-0.220142	0.952066	-0.134967	-0.209833	0.992525	-0.159940	-0.439459	0.780999	-0.089773	0.216451	1.596291	-0.039295	0.200901	1.163823	-0.035706	0.267175	0.984466	-0.109534	0.275927	0.967656	-0.109368	0.476100	0.778206	-0.068932
109	3.600000	0.014083	0.746756	-0.164877	-0.013207	0.791850	-0.082658	-0.130847	0.373652	0.056014	-0.157712	0.041209	-0.112837	-0.143017	-0.012320	-0.224647	-0.202820	0.010778	0.006878	0.109975	0.774591	-0.038101	0.227367	0.365849	0.114969	0.262392	0.052784	-0.136452	0.243182	-0.015576	-0.148575	0.303201	-0.037654	-0.004609	0.025280	0.952592	-0.085547	0.035923	1.319543	0.000487	0.001017	1.494432	-0.015253	-0.179157	1.513047	-0.012283	-0.166120	1.229968	-0.015912	-0.197529	0.968207	-0.147232	-0.186057	1.011015	-0.162298	-0.388093	0.775700	-0.153828	0.215973	1.619439	-0.041767	0.200162	1.180137	-0.039238	0.245191	1.000368	-0.126887	0.252890	0.984512	-0.124988	0.433301	0.785482	-0.122623
110	3.633333	0.013341	0.771199	-0.168418	-0.010909	0.821424	-0.083080	-0.130814	0.391108	0.040271	-0.157479	0.045013	-0.116439	-0.142737	-0.011922	-0.224092	-0.200565	0.012152	0.008147	0.108327	0.803532	-0.041307	0.224317	0.383530	0.089458	0.259444	0.054159	-0.132831	0.240775	-0.014649	-0.144930	0.298656	-0.035480	0.000705	0.022757	0.980197	-0.079761	0.035675	1.350862	-0.000092	0.001264	1.527251	-0.016948	-0.180840	1.549512	-0.010487	-0.167566	1.261076	-0.014077	-0.187418	1.003879	-0.161871	-0.174394	1.049554	-0.171252	-0.356255	0.810117	-0.201174	0.214757	1.659318	-0.043257	0.198300	1.212997	-0.041880	0.229162	1.032613	-0.148181	0.236304	1.020709	-0.144241	0.407302	0.818970	-0.171055
111	3.666667	0.012498	0.799665	-0.173712	-0.008255	0.855788	-0.084550	-0.131064	0.410895	0.018234	-0.157692	0.049243	-0.121906	-0.142644	-0.011459	-0.224023	-0.198320	0.013590	0.009351	0.106573	0.837152	-0.045851	0.221115	0.404034	0.054200	0.256638	0.054917	-0.129182	0.238546	-0.013709	-0.141260	0.294244	-0.033912	0.006777	0.019987	1.012207	-0.074121	0.035426	1.386342	-0.001567	0.002014	1.564269	-0.019737	-0.182654	1.592432	-0.009990	-0.169029	1.298110	-0.013176	-0.185987	1.046207	-0.173970	-0.171614	1.094922	-0.180883	-0.346289	0.856702	-0.229885	0.212869	1.705146	-0.045385	0.195748	1.251807	-0.044985	0.216873	1.070894	-0.169921	0.223775	1.064210	-0.164175	0.391490	0.862555	-0.211940
112	3.700000	0.011818	0.824201	-0.180908	-0.005888	0.885162	-0.087667	-0.131759	0.427657	-0.006610	-0.158691	0.052684	-0.128673	-0.143062	-0.011015	-0.224965	-0.196973	0.014592	0.009729	0.104964	0.865783	-0.051821	0.219043	0.420861	0.014956	0.255204	0.056138	-0.127185	0.237343	-0.012514	-0.139235	0.292003	-0.032423	0.010494	0.017516	1.039358	-0.070936	0.035168	1.416158	-0.003570	0.002942	1.595261	-0.023275	-0.184388	1.628862	-0.009904	-0.170387	1.329595	-0.012766	-0.191167	1.079803	-0.177560	-0.176041	1.130608	-0.184092	-0.352067	0.893831	-0.237368	0.211053	1.743799	-0.047903	0.193457	1.284405	-0.048114	0.209889	1.102874	-0.185787	0.216794	1.100647	-0.179031	0.385615	0.900739	-0.237976
113	3.733333	0.011437	0.840595	-0.189734	-0.004090	0.904315	-0.092388	-0.132848	0.438590	-0.029213	-0.160301	0.054207	-0.135289	-0.144121	-0.011259	-0.226619	-0.196620	0.014525	0.009385	0.103537	0.884333	-0.059005	0.218346	0.432003	-0.020816	0.255399	0.057659	-0.126743	0.237573	-0.011454	-0.138747	0.291237	-0.030964	0.011713	0.015584	1.056830	-0.070774	0.035044	1.435546	-0.005501	0.003992	1.615351	-0.026880	-0.185993	1.652347	-0.009287	-0.171691	1.349889	-0.012147	-0.201198	1.097796	-0.172130	-0.186027	1.149316	-0.179383	-0.368392	0.912454	-0.227628	0.209883	1.768812	-0.050670	0.192016	1.304593	-0.051113	0.207911	1.122212	-0.194551	0.214965	1.122578	-0.187648	0.387191	0.924670	-0.250798
114	3.766667	0.011267	0.849573	-0.199894	-0.002840	0.914208	-0.098123	-0.134029	0.443937	-0.047173	-0.162082	0.053545	-0.140395	-0.145435	-0.012707	-0.227933	-0.196828	0.013479	0.009441	0.102053	0.893851	-0.066765	0.218619	0.438571	-0.049151	0.256767	0.058268	-0.125855	0.238955	-0.010987	-0.137878	0.291318	-0.030487	0.012715	0.014011	1.065401	-0.073206	0.034874	1.445666	-0.007532	0.004960	1.625758	-0.030675	-0.187474	1.664171	-0.007889	-0.173040	1.360137	-0.011078	-0.214596	1.102441	-0.157589	-0.199924	1.153492	-0.166411	-0.390952	0.915588	-0.201823	0.208769	1.781557	-0.054010	0.190819	1.313219	-0.054446	0.209232	1.129594	-0.197825	0.216582	1.130573	-0.191597	0.394141	0.934232	-0.253632
